<?xml version="1.0" standalone="no"?><!DOCTYPE svg PUBLIC "-//W3C//DTD SVG 1.1//EN" "http://www.w3.org/Graphics/SVG/1.1/DTD/svg11.dtd"><svg t="1605948156210" class="icon" viewBox="0 0 1024 1024" version="1.1" xmlns="http://www.w3.org/2000/svg" p-id="859" xmlns:xlink="http://www.w3.org/1999/xlink" width="200" height="200"><defs><style type="text/css"></style></defs><path d="M512 512m-501.76 0a501.76 501.76 0 1 0 1003.52 0 501.76 501.76 0 1 0-1003.52 0Z" fill="#0ABFB2" p-id="860"></path><path d="M512 1024c-136.8064 0-265.4208-53.248-362.0864-149.9136C53.248 777.4208 0 648.8064 0 512S53.248 246.5792 149.9136 149.9136C246.5792 53.248 375.1936 0 512 0s265.4208 53.248 362.0864 149.9136C970.752 246.5792 1024 375.1936 1024 512s-53.248 265.4208-149.9136 362.0864C777.4208 970.752 648.8064 1024 512 1024z m0-1003.52C241.0496 20.48 20.48 241.0496 20.48 512s220.5696 491.52 491.52 491.52 491.52-220.5696 491.52-491.52S782.9504 20.48 512 20.48z" fill="#1C1D21" p-id="861"></path><path d="M654.1312 520.3968c-19.8656-6.144-39.1168-14.5408-57.9584-23.3472l-41.3696-19.456c-10.0352-4.5056-16.384-14.336-16.384-25.3952v-14.1312c0-7.9872 4.7104-15.1552 11.8784-18.432 30.72-14.5408 52.224-45.8752 52.224-82.1248v-41.7792c0-50.176-40.5504-90.7264-90.7264-90.7264-50.176 0-90.7264 40.5504-90.7264 90.7264v41.7792c0 36.2496 21.2992 67.584 52.224 82.1248 7.168 3.4816 11.8784 10.4448 11.8784 18.432v14.1312c0 10.8544-6.5536 20.8896-16.384 25.3952l-41.7792 19.8656c-18.432 8.8064-37.4784 16.9984-56.9344 23.1424-16.7936 5.3248-29.0816 20.8896-29.0816 39.5264v173.2608h342.4256v-173.2608c-0.2048-18.6368-12.4928-34.4064-29.2864-39.7312z" fill="#FFC5B3" p-id="862"></path><path d="M683.2128 743.6288H340.7872c-5.7344 0-10.24-4.5056-10.24-10.24v-173.2608c0-22.7328 14.5408-42.5984 36.2496-49.3568 20.8896-6.5536 40.7552-15.5648 55.7056-22.528l41.7792-19.8656s0.2048 0 0.2048-0.2048c6.3488-2.8672 10.4448-9.0112 10.4448-15.9744v-14.1312c0-3.8912-2.2528-7.3728-6.144-9.216-35.2256-16.5888-57.9584-52.4288-57.9584-91.3408v-41.7792c0-55.7056 45.2608-100.9664 100.9664-100.9664s100.9664 45.2608 100.9664 100.9664v41.7792c0 38.912-22.7328 74.752-57.9584 91.3408-3.6864 1.8432-6.144 5.3248-6.144 9.216v14.1312c0 6.9632 4.096 13.1072 10.4448 15.9744h0.2048l41.3696 19.456c15.1552 7.168 35.4304 16.1792 56.7296 22.9376 21.7088 6.7584 36.2496 26.624 36.2496 49.3568V733.184c-0.2048 5.7344-4.9152 10.4448-10.4448 10.4448z m-332.1856-20.48h321.9456v-163.0208c0-13.7216-8.8064-25.6-21.9136-29.696-22.3232-6.9632-43.4176-16.384-59.1872-23.9616l-41.3696-19.456c-13.7216-6.144-22.528-19.6608-22.528-34.6112V438.272c0-11.6736 6.9632-22.7328 17.8176-27.8528 28.0576-13.312 46.2848-41.7792 46.2848-72.9088v-41.7792c0-44.4416-36.0448-80.4864-80.4864-80.4864-44.4416 0-80.4864 36.0448-80.4864 80.4864v41.7792c0 30.9248 18.2272 59.5968 46.2848 72.9088 10.8544 5.12 17.8176 15.9744 17.8176 27.8528v14.1312c0 14.9504-8.8064 28.4672-22.528 34.6112l-41.5744 19.6608c-15.5648 7.3728-36.2496 16.7936-58.368 23.552-13.1072 4.096-21.9136 15.9744-21.9136 29.696v163.2256z" fill="#1C1D21" p-id="863"></path><path d="M605.184 227.328v-20.0704c0-51.6096-41.7792-93.5936-93.5936-93.5936-51.6096 0-93.5936 41.7792-93.5936 93.5936v20.0704h187.1872z" fill="#FF8939" p-id="864"></path><path d="M605.184 237.568h-186.9824c-5.7344 0-10.24-4.5056-10.24-10.24v-20.0704c0-57.1392 46.4896-103.8336 103.8336-103.8336s103.8336 46.4896 103.8336 103.8336v20.0704c-0.2048 5.5296-4.7104 10.24-10.4448 10.24z m-176.7424-20.48h166.5024v-9.8304c0-45.8752-37.2736-83.3536-83.3536-83.3536-45.8752 0-83.3536 37.2736-83.3536 83.3536v9.8304z" fill="#1C1D21" p-id="865"></path><path d="M655.7696 521.0112c-19.0464-6.7584-37.888-13.7216-56.1152-22.3232l-44.8512-21.0944-1.2288-0.6144c-25.1904 16.9984-57.9584 17.2032-83.3536 0.4096l-0.4096-0.4096-1.2288 0.6144-44.8512 21.2992c-18.0224 8.6016-36.6592 15.36-55.5008 22.1184-15.9744 5.7344-27.4432 21.0944-27.4432 38.912V733.184h342.4256v-173.2608c0-17.8176-11.4688-33.1776-27.4432-38.912z" fill="#FF3E63" p-id="866"></path><path d="M683.2128 743.6288H340.7872c-5.7344 0-10.24-4.5056-10.24-10.24v-173.2608c0-21.7088 13.7216-41.1648 34.2016-48.5376 18.8416-6.7584 37.0688-13.5168 54.4768-21.7088l44.8512-21.2992s0.2048 0 0.2048-0.2048c0.2048 0 0.2048-0.2048 0.4096-0.2048l0.2048-0.2048c3.2768-1.6384 7.168-1.4336 10.24 0.6144l0.4096 0.4096c21.9136 14.5408 50.176 14.5408 71.8848-0.2048 3.072-2.048 6.9632-2.2528 10.24-0.6144l0.4096 0.2048c0.2048 0 0.2048 0.2048 0.4096 0.2048h0.2048l44.8512 21.0944c17.408 8.192 35.4304 14.7456 55.296 21.9136 20.48 7.3728 34.2016 26.8288 34.2016 48.5376v173.2608c0.4096 5.5296-4.3008 10.24-9.8304 10.24z m-332.1856-20.48h321.9456v-163.0208c0-13.1072-8.192-24.7808-20.6848-29.2864-20.48-7.3728-38.7072-14.1312-57.1392-22.7328l-40.96-19.2512a84.52096 84.52096 0 0 1-85.1968 0l-40.96 19.456c-18.2272 8.6016-37.0688 15.5648-56.32 22.528-12.288 4.5056-20.6848 16.1792-20.6848 29.2864v163.0208zM512 398.1312c-14.336 0-27.4432-7.5776-34.6112-20.0704-2.8672-4.9152-1.2288-11.0592 3.6864-13.9264 4.9152-2.8672 11.264-1.2288 13.9264 3.6864 3.4816 5.9392 10.0352 9.8304 16.9984 9.8304s13.5168-3.6864 16.9984-9.8304c2.8672-4.9152 9.0112-6.5536 13.9264-3.6864 4.9152 2.8672 6.5536 9.0112 3.6864 13.9264-7.168 12.288-20.2752 20.0704-34.6112 20.0704z" fill="#1C1D21" p-id="867"></path><path d="M618.2912 506.88c-6.3488-2.6624-12.4928-5.3248-18.6368-8.192L575.488 487.424v67.1744c0 15.36-12.4928 27.8528-27.8528 27.8528h-71.2704c-15.36 0-27.8528-12.4928-27.8528-27.8528v-67.3792l-24.9856 11.8784c-5.9392 2.8672-11.8784 5.3248-18.0224 7.9872v274.2272l92.7744 94.4128 119.808-144.1792V506.88z" fill="#508DEF" p-id="868"></path><path d="M499.712 885.9648c-2.6624 0-5.3248-1.024-7.168-3.072l-94.208-94.4128c-1.8432-1.8432-3.072-4.5056-3.072-7.168v-274.432c0-2.6624 1.024-5.3248 3.072-7.168 1.024-1.024 2.048-1.6384 3.2768-2.2528 6.3488-2.6624 12.0832-5.12 17.408-7.7824l24.9856-11.8784c3.072-1.4336 6.9632-1.2288 9.8304 0.6144s4.7104 5.12 4.7104 8.6016v67.3792c0 9.6256 7.7824 17.6128 17.6128 17.6128h71.2704c9.6256 0 17.6128-7.7824 17.6128-17.6128V487.424c0-3.4816 1.8432-6.7584 4.7104-8.6016 2.8672-1.8432 6.7584-2.048 9.8304-0.6144l24.1664 11.4688c5.5296 2.6624 11.4688 5.12 18.2272 7.9872 3.8912 1.6384 6.3488 5.3248 6.3488 9.4208v224.4608c0 2.4576-0.8192 4.7104-2.2528 6.5536l-118.5792 144.1792c-1.8432 2.2528-4.5056 3.6864-7.3728 3.6864h-0.4096z m-83.7632-108.9536l83.1488 83.5584 108.9536-132.7104V513.8432c-4.5056-2.048-8.8064-3.8912-12.9024-5.7344l-9.6256-4.5056v50.9952c0 20.8896-16.9984 38.0928-38.0928 38.0928h-71.2704c-20.8896 0-38.0928-16.9984-38.0928-38.0928v-51.2l-10.24 4.9152c-3.8912 1.8432-7.7824 3.6864-12.0832 5.5296v263.168z" fill="#1C1D21" p-id="869"></path><path d="M403.6608 341.4016h17.6128V288.768h-17.6128c-12.6976 0-22.9376 10.24-22.9376 22.9376v6.7584c0 12.6976 10.24 22.9376 22.9376 22.9376z" fill="#FFC5B3" p-id="870"></path><path d="M421.2736 351.6416h-17.6128c-18.2272 0-33.1776-14.9504-33.1776-33.1776v-6.7584c0-18.2272 14.9504-33.1776 33.1776-33.1776h17.6128c5.7344 0 10.24 4.5056 10.24 10.24v52.6336c0 5.7344-4.5056 10.24-10.24 10.24z m-17.6128-52.6336c-6.9632 0-12.6976 5.7344-12.6976 12.6976v6.7584c0 6.9632 5.7344 12.6976 12.6976 12.6976h7.3728V299.008h-7.3728z" fill="#1C1D21" p-id="871"></path><path d="M620.3392 288.768h-17.6128v52.6336h17.6128c12.6976 0 22.9376-10.24 22.9376-22.9376v-6.7584c0-12.6976-10.24-22.9376-22.9376-22.9376z" fill="#FFC5B3" p-id="872"></path><path d="M620.3392 351.6416h-17.6128c-5.7344 0-10.24-4.5056-10.24-10.24V288.768c0-5.7344 4.5056-10.24 10.24-10.24h17.6128c18.2272 0 33.1776 14.9504 33.1776 33.1776v6.7584c0 18.2272-14.9504 33.1776-33.1776 33.1776z m-7.3728-20.48h7.3728c6.9632 0 12.6976-5.7344 12.6976-12.6976v-6.7584c0-6.9632-5.7344-12.6976-12.6976-12.6976h-7.3728v32.1536z" fill="#1C1D21" p-id="873"></path><path d="M465.7152 325.4272c-5.7344 0-10.24-4.5056-10.24-10.24v-41.984c0-5.7344 4.5056-10.24 10.24-10.24s10.24 4.5056 10.24 10.24v41.984c0 5.5296-4.5056 10.24-10.24 10.24z" fill="#FFECE9" p-id="874"></path><path d="M647.7824 272.9984H376.2176c-12.6976 0-22.9376-10.24-22.9376-22.9376 0-12.6976 10.24-22.9376 22.9376-22.9376h271.36c12.6976 0 22.9376 10.24 22.9376 22.9376 0 12.6976-10.24 22.9376-22.7328 22.9376z" fill="#FF8939" p-id="875"></path><path d="M647.7824 283.2384H376.2176c-18.2272 0-33.1776-14.9504-33.1776-33.1776s14.9504-33.1776 33.1776-33.1776h271.36c18.2272 0 33.1776 14.9504 33.1776 33.1776s-14.7456 33.1776-32.9728 33.1776zM376.2176 237.568c-6.9632 0-12.6976 5.7344-12.6976 12.6976s5.7344 12.6976 12.6976 12.6976h271.36c6.9632 0 12.6976-5.7344 12.6976-12.6976s-5.7344-12.6976-12.6976-12.6976H376.2176z" fill="#1C1D21" p-id="876"></path><path d="M253.3376 598.4256l-15.7696-15.7696c-21.9136-21.9136-49.152-38.2976-78.848-47.5136C167.936 564.8384 184.32 591.872 206.2336 613.9904l15.7696 15.7696 31.3344-31.3344z" fill="#FF9E5C" p-id="877"></path><path d="M222.0032 640c-2.6624 0-5.3248-1.024-7.168-3.072l-15.7696-15.7696C175.9232 598.016 158.72 569.344 149.0944 538.2144c-1.024-3.6864-0.2048-7.5776 2.4576-10.24 2.6624-2.6624 6.5536-3.6864 10.24-2.4576 31.1296 9.6256 60.0064 27.0336 82.944 49.9712l15.7696 15.7696c4.096 4.096 4.096 10.4448 0 14.5408L229.376 637.1328c-2.048 1.8432-4.5056 2.8672-7.3728 2.8672z m-45.6704-87.2448c9.0112 20.0704 21.7088 38.5024 37.2736 54.0672l8.6016 8.6016 16.7936-16.7936-8.6016-8.6016c-15.5648-15.5648-33.9968-28.2624-54.0672-37.2736z" fill="#1C1D21" p-id="878"></path><path d="M379.0848 781.9264h-60.416l23.1424 23.1424c11.8784 11.8784 28.2624 18.6368 45.056 18.6368h60.416l-23.1424-23.1424c-11.8784-11.8784-28.0576-18.6368-45.056-18.6368zM336.4864 739.328h-60.416l23.1424 23.1424c11.8784 11.8784 28.2624 18.6368 45.056 18.6368h60.416l-23.1424-23.1424c-11.8784-11.8784-28.2624-18.6368-45.056-18.6368zM293.888 696.7296H233.472l23.1424 23.1424c11.8784 11.8784 28.2624 18.6368 45.056 18.6368h60.416l-23.1424-23.1424c-12.0832-12.0832-28.2624-18.6368-45.056-18.6368zM251.0848 653.9264H190.8736l23.1424 23.1424c11.8784 11.8784 28.2624 18.6368 45.056 18.6368H319.488l-23.1424-23.1424c-12.0832-11.8784-28.2624-18.6368-45.2608-18.6368zM208.4864 611.328H148.0704l23.1424 23.1424c11.8784 11.8784 28.2624 18.6368 45.056 18.6368h60.416l-23.1424-23.1424c-11.8784-11.8784-28.0576-18.6368-45.056-18.6368zM405.504 755.5072v-60.416l23.1424 23.1424c11.8784 11.8784 18.6368 28.2624 18.6368 45.056v60.416l-23.1424-23.1424c-11.8784-11.8784-18.6368-28.0576-18.6368-45.056z" fill="#FF9E5C" p-id="879"></path><path d="M362.9056 712.9088v-60.416l23.1424 23.1424c11.8784 11.8784 18.6368 28.2624 18.6368 45.056v60.416l-23.1424-23.1424c-11.8784-11.8784-18.6368-28.2624-18.6368-45.056zM320.3072 670.3104v-60.416l23.1424 23.1424c11.8784 11.8784 18.6368 28.2624 18.6368 45.056v60.416l-23.1424-23.1424c-12.0832-12.0832-18.6368-28.2624-18.6368-45.056zM277.504 627.5072V567.296l23.1424 23.1424c11.8784 11.8784 18.6368 28.2624 18.6368 45.056v60.416l-23.1424-23.1424c-11.8784-12.0832-18.6368-28.2624-18.6368-45.2608zM234.9056 584.9088v-60.416l23.1424 23.1424c11.8784 11.8784 18.6368 28.2624 18.6368 45.056V653.312l-23.1424-23.1424c-11.8784-12.0832-18.6368-28.2624-18.6368-45.2608z" fill="#FF9E5C" p-id="880"></path><path d="M447.488 834.1504H387.072c-19.8656 0-38.2976-7.7824-52.4288-21.7088l-23.1424-23.1424c-2.8672-2.8672-3.8912-7.3728-2.2528-11.0592 1.6384-3.8912 5.3248-6.3488 9.4208-6.3488h60.416c19.8656 0 38.2976 7.7824 52.4288 21.7088l23.1424 23.1424c2.8672 2.8672 3.8912 7.3728 2.2528 11.0592-1.6384 3.6864-5.3248 6.3488-9.4208 6.3488z m-104.0384-41.984l5.7344 5.7344c10.0352 10.0352 23.552 15.7696 37.888 15.7696h35.6352l-5.7344-5.7344c-10.0352-10.0352-23.552-15.7696-37.888-15.7696h-35.6352z" fill="#1C1D21" p-id="881"></path><path d="M404.6848 791.3472h-60.416c-19.8656 0-38.2976-7.7824-52.4288-21.7088l-23.1424-23.1424c-2.8672-2.8672-3.8912-7.3728-2.2528-11.0592 1.6384-3.8912 5.3248-6.3488 9.4208-6.3488h60.416c19.8656 0 38.2976 7.7824 52.4288 21.7088l23.1424 23.1424c2.8672 2.8672 3.8912 7.3728 2.2528 11.0592-1.4336 3.8912-5.12 6.3488-9.4208 6.3488zM300.8512 749.568l5.7344 5.7344c10.0352 10.0352 23.552 15.7696 37.888 15.7696h35.6352l-5.7344-5.7344c-10.0352-10.0352-23.552-15.7696-37.888-15.7696h-35.6352z" fill="#1C1D21" p-id="882"></path><path d="M362.0864 748.7488h-60.416c-19.8656 0-38.2976-7.7824-52.4288-21.7088l-23.1424-23.1424c-2.8672-2.8672-3.8912-7.3728-2.2528-11.0592 1.6384-3.8912 5.3248-6.3488 9.4208-6.3488h60.416c19.8656 0 38.2976 7.7824 52.4288 21.7088l23.1424 23.1424c2.8672 2.8672 3.8912 7.3728 2.2528 11.0592-1.4336 3.8912-5.3248 6.3488-9.4208 6.3488z m-103.8336-41.7792l5.7344 5.7344c10.0352 10.0352 23.552 15.7696 37.888 15.7696h35.6352l-5.7344-5.7344c-10.0352-10.0352-23.552-15.7696-37.888-15.7696h-35.6352z" fill="#1C1D21" p-id="883"></path><path d="M319.488 706.1504h-60.416c-19.8656 0-38.2976-7.7824-52.4288-21.7088l-23.1424-23.1424c-2.8672-2.8672-3.8912-7.3728-2.2528-11.0592 1.6384-3.8912 5.3248-6.3488 9.4208-6.3488h60.416c19.8656 0 38.2976 7.7824 52.4288 21.7088l23.1424 23.1424c2.8672 2.8672 3.8912 7.3728 2.2528 11.0592-1.6384 3.8912-5.3248 6.3488-9.4208 6.3488z m-104.0384-41.984l5.7344 5.7344c10.0352 10.0352 23.552 15.7696 37.888 15.7696h35.6352l-5.7344-5.7344c-10.0352-10.0352-23.552-15.7696-37.888-15.7696h-35.6352z" fill="#1C1D21" p-id="884"></path><path d="M276.8896 663.552h-60.416c-19.8656 0-38.2976-7.7824-52.4288-21.7088l-23.1424-23.1424c-2.8672-2.8672-3.8912-7.3728-2.2528-11.0592 1.6384-3.8912 5.3248-6.3488 9.4208-6.3488h60.416c19.8656 0 38.2976 7.7824 52.4288 21.7088l23.1424 23.1424c2.8672 2.8672 3.8912 7.3728 2.2528 11.0592-1.6384 3.8912-5.3248 6.3488-9.4208 6.3488z m-104.0384-41.984l5.7344 5.7344c10.0352 10.0352 23.552 15.7696 37.888 15.7696h35.6352l-5.7344-5.7344c-10.0352-10.0352-23.552-15.7696-37.888-15.7696H172.8512zM447.488 834.1504c-2.6624 0-5.3248-1.024-7.168-3.072l-23.1424-23.1424c-13.9264-13.9264-21.7088-32.5632-21.7088-52.4288v-60.416c0-4.096 2.4576-7.7824 6.3488-9.4208 3.8912-1.6384 8.192-0.6144 11.0592 2.2528l23.1424 23.1424c13.9264 13.9264 21.7088 32.5632 21.7088 52.4288v60.416c0 4.096-2.4576 7.7824-6.3488 9.4208-1.2288 0.4096-2.6624 0.8192-3.8912 0.8192zM415.744 719.872v35.6352c0 14.336 5.5296 27.648 15.7696 37.888l5.7344 5.7344v-35.6352c0-14.336-5.5296-27.648-15.7696-37.888l-5.7344-5.7344z" fill="#1C1D21" p-id="885"></path><path d="M404.6848 791.3472c-2.6624 0-5.3248-1.024-7.168-3.072l-23.1424-23.1424c-13.9264-13.9264-21.7088-32.5632-21.7088-52.4288v-60.416c0-4.096 2.4576-7.7824 6.3488-9.4208 3.8912-1.6384 8.192-0.6144 11.0592 2.2528l23.1424 23.1424c13.9264 13.9264 21.7088 32.5632 21.7088 52.4288v60.416c0 4.096-2.4576 7.7824-6.3488 9.4208-1.2288 0.6144-2.4576 0.8192-3.8912 0.8192z m-31.5392-114.0736v35.6352c0 14.336 5.5296 27.648 15.7696 37.888l5.7344 5.7344V720.896c0-14.336-5.5296-27.648-15.7696-37.888l-5.7344-5.7344z" fill="#1C1D21" p-id="886"></path><path d="M362.0864 748.7488c-2.6624 0-5.3248-1.024-7.168-3.072L331.776 722.5344c-13.9264-13.9264-21.7088-32.5632-21.7088-52.4288v-60.416c0-4.096 2.4576-7.7824 6.3488-9.4208 3.8912-1.6384 8.192-0.6144 11.0592 2.2528l23.1424 23.1424c13.9264 13.9264 21.7088 32.5632 21.7088 52.4288v60.416c0 4.096-2.4576 7.7824-6.3488 9.4208-1.2288 0.6144-2.4576 0.8192-3.8912 0.8192z m-31.5392-114.0736v35.6352c0 14.336 5.5296 27.648 15.7696 37.888l5.7344 5.7344v-35.6352c0-14.336-5.5296-27.648-15.7696-37.888l-5.7344-5.7344z" fill="#1C1D21" p-id="887"></path><path d="M319.488 706.1504c-2.6624 0-5.3248-1.024-7.168-3.072L288.9728 679.936c-13.9264-13.9264-21.7088-32.5632-21.7088-52.4288V567.296c0-4.096 2.4576-7.7824 6.3488-9.4208 3.8912-1.6384 8.192-0.6144 11.0592 2.2528l23.1424 23.1424c13.9264 13.9264 21.7088 32.5632 21.7088 52.4288v60.416c0 4.096-2.4576 7.7824-6.3488 9.4208-1.024 0.4096-2.4576 0.6144-3.6864 0.6144zM287.744 591.872v35.6352c0 14.336 5.5296 27.648 15.7696 37.888l5.7344 5.7344v-35.6352c0-14.336-5.5296-27.648-15.7696-37.888l-5.7344-5.7344z" fill="#1C1D21" p-id="888"></path><path d="M276.8896 663.552c-2.6624 0-5.3248-1.024-7.168-3.072l-23.1424-23.1424c-13.9264-13.9264-21.7088-32.5632-21.7088-52.4288v-60.416c0-4.096 2.4576-7.7824 6.3488-9.4208 3.8912-1.6384 8.192-0.6144 11.0592 2.2528l23.1424 23.1424c13.9264 13.9264 21.7088 32.5632 21.7088 52.4288V653.312c0 4.096-2.4576 7.7824-6.3488 9.4208-1.2288 0.6144-2.6624 0.8192-3.8912 0.8192z m-31.744-114.2784v35.6352c0 14.336 5.5296 27.648 15.7696 37.888l5.7344 5.7344v-35.6352c0-14.336-5.5296-27.648-15.7696-37.888l-5.7344-5.7344zM558.08 944.3328c-2.6624 0-5.3248-1.024-7.168-3.072l-116.736-116.5312c-4.096-4.096-4.096-10.4448 0-14.5408s10.4448-4.096 14.5408 0l116.5312 116.5312c4.096 4.096 4.096 10.4448 0 14.5408-2.048 2.048-4.5056 3.072-7.168 3.072z" fill="#1C1D21" p-id="889"></path><path d="M841.728 603.9552l-53.0432 53.0432c-6.5536 6.5536-17.408 6.5536-23.9616 0-6.5536-6.5536-6.5536-17.408 0-23.9616l53.0432-53.0432c7.7824-7.7824 7.7824-20.2752 0-28.0576-7.7824-7.7824-20.2752-7.7824-28.0576 0l-53.0432 53.0432c-6.5536 6.5536-17.408 6.5536-23.9616 0-6.5536-6.5536-6.5536-17.408 0-23.9616l53.0432-53.0432c7.7824-7.7824 7.7824-20.2752 0-28.0576l-0.2048-0.2048c-7.7824-7.7824-20.2752-7.7824-28.0576 0l-131.072 131.072c-14.9504 14.9504-14.9504 39.1168 0 54.0672l78.6432 78.6432c14.9504 14.9504 39.1168 14.9504 54.0672 0l131.072-131.072c7.7824-7.7824 7.7824-20.2752 0-28.0576l-0.2048-0.2048c-7.9872-7.7824-20.48-7.7824-28.2624-0.2048z" fill="#AAADAD" p-id="890"></path><path d="M435.4048 934.2976c-9.216-9.216-9.216-24.1664 0-33.3824l193.3312-193.3312 33.3824 33.3824-193.3312 193.3312c-9.216 9.216-24.1664 9.216-33.3824 0z" fill="#C67552" p-id="891"></path><path d="M452.1984 951.296c-8.6016 0-17.408-3.2768-23.9616-9.8304-6.3488-6.3488-9.8304-14.9504-9.8304-23.9616s3.4816-17.6128 9.8304-23.9616l193.3312-193.3312c4.096-4.096 10.4448-4.096 14.5408 0l33.3824 33.3824c1.8432 1.8432 3.072 4.5056 3.072 7.168s-1.024 5.3248-3.072 7.168l-193.3312 193.3312c-6.7584 6.7584-15.36 10.0352-23.9616 10.0352zM628.736 722.1248l-186.1632 186.1632c-5.12 5.12-5.12 13.7216 0 18.8416 5.12 5.12 13.7216 5.12 18.8416 0l186.1632-186.1632-18.8416-18.8416z" fill="#1C1D21" p-id="892"></path><path d="M711.8848 784.9984c-12.9024 0-25.1904-5.12-34.4064-14.1312L599.04 692.224c-18.8416-18.8416-18.8416-49.7664 0-68.608l131.072-131.072c11.6736-11.6736 30.9248-11.6736 42.5984 0l0.2048 0.2048c11.6736 11.6736 11.6736 30.9248 0 42.5984l-53.0432 53.0432c-1.2288 1.2288-2.048 2.8672-2.048 4.7104 0 1.8432 0.6144 3.4816 2.048 4.7104 2.4576 2.4576 6.9632 2.4576 9.4208 0L782.336 544.768c11.6736-11.6736 30.9248-11.6736 42.5984 0 5.7344 5.7344 8.8064 13.312 8.8064 21.2992 0 7.9872-3.072 15.5648-8.8064 21.2992l-53.0432 53.0432c-2.6624 2.6624-2.6624 6.9632 0 9.4208 2.4576 2.4576 6.9632 2.4576 9.4208 0l53.0432-53.0432c11.6736-11.6736 30.9248-11.6736 42.5984 0l0.2048 0.4096c5.7344 5.7344 8.8064 13.312 8.8064 21.2992 0 7.9872-3.072 15.5648-8.8064 21.2992l-131.072 131.072c-9.0112 9.0112-21.2992 14.1312-34.2016 14.1312z m39.3216-280.9856c-2.4576 0-4.9152 1.024-6.7584 2.8672l-131.072 131.072c-10.8544 10.8544-10.8544 28.672 0 39.7312l78.6432 78.6432c5.3248 5.3248 12.288 8.192 19.8656 8.192 7.5776 0 14.5408-2.8672 19.8656-8.192l131.072-131.072c1.8432-1.8432 2.8672-4.3008 2.8672-6.7584 0-2.6624-1.024-4.9152-2.8672-6.7584l-0.2048-0.4096c-3.6864-3.6864-9.8304-3.6864-13.5168 0l-53.0432 53.0432c-5.12 5.12-11.8784 7.9872-19.2512 7.9872-7.168 0-14.1312-2.8672-19.2512-7.9872-10.6496-10.6496-10.6496-27.8528 0-38.5024l53.0432-53.0432c1.8432-1.8432 2.8672-4.3008 2.8672-6.7584s-1.024-4.9152-2.8672-6.7584c-3.6864-3.6864-9.8304-3.6864-13.5168 0L744.0384 612.352c-5.12 5.12-11.8784 7.9872-19.2512 7.9872-7.168 0-14.1312-2.8672-19.2512-7.9872s-7.9872-11.8784-7.9872-19.2512 2.8672-14.1312 7.9872-19.2512l53.0432-53.0432c3.6864-3.6864 3.6864-9.8304 0-13.5168l-0.2048-0.2048c-2.048-2.048-4.5056-3.072-7.168-3.072z" fill="#1C1D21" p-id="893"></path><path d="M666.624 697.7536c-2.6624 0-5.3248-1.024-7.168-3.072l-22.528-22.528c-7.9872-7.9872-7.9872-20.8896 0-28.672l29.696-29.696c4.096-4.096 10.4448-4.096 14.5408 0s4.096 10.4448 0 14.5408l-29.696 29.696 22.3232 22.3232c4.096 4.096 4.096 10.4448 0 14.5408-1.8432 1.8432-4.5056 2.8672-7.168 2.8672z" fill="#E0E0E0" p-id="894"></path><path d="M701.8496 732.7744c-2.6624 0-5.3248-1.024-7.168-3.072l-8.192-8.192c-4.096-4.096-4.096-10.4448 0-14.5408s10.4448-4.096 14.5408 0l8.192 8.192c4.096 4.096 4.096 10.4448 0 14.5408-2.2528 2.048-4.7104 3.072-7.3728 3.072z" fill="#E0E0E0" p-id="895"></path></svg>