<?xml version="1.0" standalone="no"?><!DOCTYPE svg PUBLIC "-//W3C//DTD SVG 1.1//EN" "http://www.w3.org/Graphics/SVG/1.1/DTD/svg11.dtd"><svg t="1607078495745" class="icon" viewBox="0 0 1032 1024" version="1.1" xmlns="http://www.w3.org/2000/svg" p-id="3133" xmlns:xlink="http://www.w3.org/1999/xlink" width="16.125" height="16"><defs><style type="text/css"></style></defs><path d="M826.117983 214.265797l-97.227496-16.38378c-23.125023-3.874081-45.268726 11.861174-49.15134 34.986197-3.925281 23.125023 11.818508 45.268726 34.986197 49.151341l252.412614 42.580762c0.938654 0.136532 1.791976-0.204797 2.73063-0.119465 3.029293 0.341329 5.930587 0.042666 9.002545-0.298663 2.525833-0.255997 4.949267-0.426661 7.304436-1.160518 1.058119-0.298663 2.167438-0.085332 3.191424-0.469327 2.175971-0.810656 3.71195-2.431967 5.67459-3.541285 1.877308-1.066652 3.71195-2.047973 5.418594-3.413288 2.815962-2.218637 5.085798-4.727403 7.219103-7.509233 1.194651-1.535979 2.346635-2.986627 3.327956-4.642071 1.877308-3.327955 3.029293-6.741243 3.967946-10.410527 0.341329-1.237317 1.109318-2.175971 1.314116-3.413287 0.136532-0.639991-0.119465-1.194651-0.042666-1.791976 0.469327-3.71195 0.170664-7.381234-0.383995-11.178517-0.255997-1.877308-0.341329-3.754616-0.853322-5.589258-0.341329-1.109318-0.119465-2.261303-0.546126-3.413288l-89.394-239.868781a42.785559 42.785559 0 0 0-54.868598-25.087664c-21.973039 8.19189-33.279553 32.887025-25.087663 54.868597l32.682228 87.72149A511.56647 511.56647 0 0 0 520.50075 0.013738c-282.321546 0-511.993131 229.671585-511.993131 511.993131s229.671585 511.993131 511.993131 511.993131 511.993131-229.671585 511.993131-511.993131c0-23.551684-19.071744-42.666094-42.666095-42.666094s-42.666094 19.11441-42.666094 42.666094c0 235.260844-191.400099 426.660942-426.660942 426.660943s-426.660942-191.400099-426.660942-426.660943 191.400099-426.660942 426.660942-426.660942a426.259881 426.259881 0 0 1 305.625766 128.91987z" p-id="3134"></path></svg>